<svg width="112" height="52" viewBox="0 0 112 52" fill="none" xmlns="http://www.w3.org/2000/svg">
<path d="M0 25.7202C0 11.7246 11.3457 0.378906 25.3413 0.378906H86.6587C100.654 0.378906 112 11.7246 112 25.7202V25.7202C112 39.7158 100.654 51.0615 86.6587 51.0615H25.3413C11.3457 51.0615 0 39.7158 0 25.7202V25.7202Z" fill="#00E1A5"/>
<path d="M26.5369 16.8865C28.1629 16.8865 29.486 17.3891 30.5059 18.3943C31.5259 19.3848 32.0359 20.6708 32.0359 22.2526C32.0359 23.8638 31.5111 25.1647 30.4616 26.1551C29.4268 27.1455 28.0447 27.6408 26.3151 27.6408H22.8339V31.7207H19.5743V16.8865H26.5369ZM22.8339 24.8469H26.0269C26.8251 24.8469 27.4755 24.6104 27.9781 24.1373C28.4807 23.6495 28.732 23.0286 28.732 22.2747C28.732 21.5208 28.4881 20.9074 28.0003 20.4343C27.5125 19.9465 26.8842 19.7026 26.1156 19.7026H22.8339V24.8469ZM42.2646 21.9865V20.5674H45.2137V31.7207H42.2646V30.3238C41.348 31.4177 40.1359 31.9646 38.6281 31.9646C37.0611 31.9646 35.7677 31.4177 34.7477 30.3238C33.7425 29.2299 33.2399 27.8329 33.2399 26.1329C33.2399 24.4477 33.7499 23.0582 34.7699 21.9643C35.7898 20.8704 37.0907 20.3234 38.6724 20.3234C40.1063 20.3234 41.3037 20.8778 42.2646 21.9865ZM37.1868 28.3503C37.7485 28.9268 38.4507 29.2151 39.2933 29.2151C40.1359 29.2151 40.8381 28.9194 41.3998 28.3281C41.9615 27.7221 42.2424 26.9829 42.2424 26.1108C42.2424 25.2682 41.9615 24.5586 41.3998 23.9821C40.8381 23.3908 40.1433 23.0952 39.3155 23.0952C38.4581 23.0952 37.7485 23.3908 37.1868 23.9821C36.6251 24.5586 36.3442 25.283 36.3442 26.1551C36.3442 27.0273 36.6251 27.759 37.1868 28.3503ZM53.2137 29.0155L56.1406 20.5674H59.3779L55.3867 31.3881C55.1649 32.009 54.958 32.5263 54.7658 32.9403C54.5736 33.3689 54.3076 33.8272 53.9676 34.315C53.6424 34.8176 53.2876 35.2167 52.9032 35.5124C52.5337 35.8228 52.0606 36.0741 51.4841 36.2663C50.9224 36.4733 50.2941 36.5767 49.5994 36.5767C48.7863 36.5767 47.9215 36.4067 47.005 36.0667V33.2729C47.8033 33.6424 48.5572 33.8272 49.2668 33.8272C49.8876 33.8272 50.3828 33.7237 50.7524 33.5168C51.1367 33.3098 51.4619 32.9624 51.728 32.4746L46.6281 20.5674H49.9098L53.2137 29.0155ZM67.0481 20.3234C67.5211 20.3234 67.9794 20.4048 68.4229 20.5674L68.4007 23.6495C67.8833 23.4573 67.3585 23.3612 66.8264 23.3612C65.9542 23.3612 65.2742 23.6273 64.7864 24.1595C64.3134 24.6769 64.0768 25.3864 64.0768 26.2882V31.7207H60.9282V20.5674H63.966V21.8978C64.646 20.8482 65.6733 20.3234 67.0481 20.3234ZM79.6921 30.3459C78.5539 31.4251 77.1126 31.9646 75.3683 31.9646C73.6239 31.9646 72.1752 31.4177 71.0222 30.3238C69.884 29.2299 69.3148 27.8477 69.3148 26.1773C69.3148 24.4921 69.8766 23.0952 71 21.9865C72.1383 20.8778 73.5944 20.3234 75.3683 20.3234C77.1274 20.3234 78.5686 20.8852 79.6921 22.0086C80.8304 23.1173 81.3995 24.5069 81.3995 26.1773C81.3995 27.8625 80.8304 29.252 79.6921 30.3459ZM75.3683 29.2151C76.2256 29.2151 76.9352 28.9268 77.4969 28.3503C78.0734 27.759 78.3617 27.0273 78.3617 26.1551C78.3617 25.283 78.0808 24.5586 77.5191 23.9821C76.9574 23.3908 76.2478 23.0952 75.3904 23.0952C74.533 23.0952 73.8161 23.3908 73.2396 23.9821C72.6631 24.5586 72.3748 25.283 72.3748 26.1551C72.3748 27.0273 72.6631 27.759 73.2396 28.3503C73.8161 28.9268 74.5257 29.2151 75.3683 29.2151ZM86.6851 16.177V31.7207H83.4699V16.177H86.6851ZM92.5967 16.177V31.7207H89.3815V16.177H92.5967Z" fill="#00323C"/>
</svg>
