<svg width="16" height="17" viewBox="0 0 16 17" fill="none" xmlns="http://www.w3.org/2000/svg">
<path d="M3.63602 10.7438L0.666016 13.0771V2.74382C0.666016 2.567 0.736253 2.39743 0.861278 2.27241C0.986302 2.14739 1.15587 2.07715 1.33268 2.07715H11.3327C11.5095 2.07715 11.6791 2.14739 11.8041 2.27241C11.9291 2.39743 11.9993 2.567 11.9993 2.74382V10.7438H3.63602ZM3.17468 9.41048H10.666V3.41048H1.99935V10.3338L3.17468 9.41048ZM5.33268 12.0771H12.1573L13.3327 13.0005V6.07715H13.9993C14.1762 6.07715 14.3457 6.14739 14.4708 6.27241C14.5958 6.39744 14.666 6.567 14.666 6.74382V15.7438L11.696 13.4105H5.99935C5.82254 13.4105 5.65297 13.3402 5.52794 13.2152C5.40292 13.0902 5.33268 12.9206 5.33268 12.7438V12.0771Z" fill="#00323C"/>
</svg>
