<svg width="129" height="51" viewBox="0 0 129 51" fill="none" xmlns="http://www.w3.org/2000/svg">
<path d="M0.201172 25.4028C0.201172 11.4072 11.5469 0.0615234 25.5425 0.0615234H102.86C116.855 0.0615234 128.201 11.4072 128.201 25.4028C128.201 39.3985 116.855 50.7441 102.86 50.7441H25.5425C11.5469 50.7441 0.201172 39.3985 0.201172 25.4028Z" fill="#00B4FA"/>
<path d="M26.6493 31.6472C24.4467 31.6472 22.6137 30.9229 21.1503 29.4742C19.7016 28.0255 18.9772 26.1999 18.9772 23.9973C18.9772 21.7947 19.7016 19.9691 21.1503 18.5204C22.6137 17.057 24.4541 16.3252 26.6715 16.3252C28.2532 16.3252 29.6576 16.717 30.8845 17.5004C32.1262 18.2839 33.028 19.3335 33.5897 20.6491L30.7293 22.0904C30.3745 21.2478 29.8276 20.5752 29.0884 20.0726C28.3641 19.57 27.5363 19.3187 26.605 19.3187C25.3485 19.3187 24.2915 19.7695 23.4342 20.6713C22.5916 21.5582 22.1703 22.6669 22.1703 23.9973C22.1703 25.313 22.5989 26.4216 23.4563 27.3234C24.3137 28.2103 25.3707 28.6538 26.6272 28.6538C27.5585 28.6538 28.3937 28.4025 29.1328 27.8999C29.8719 27.3973 30.4115 26.7247 30.7515 25.8821L33.6784 27.1903C33.1314 28.5503 32.2297 29.6368 30.9732 30.4499C29.7167 31.2481 28.2754 31.6472 26.6493 31.6472ZM45.1387 30.0286C44.0004 31.1077 42.5592 31.6472 40.8148 31.6472C39.0705 31.6472 37.6218 31.1003 36.4688 30.0064C35.3305 28.9125 34.7614 27.5303 34.7614 25.8599C34.7614 24.1747 35.3232 22.7778 36.4466 21.6691C37.5849 20.5604 39.0409 20.0061 40.8148 20.0061C42.5739 20.0061 44.0152 20.5678 45.1387 21.6913C46.2769 22.7999 46.8461 24.1895 46.8461 25.8599C46.8461 27.5451 46.2769 28.9347 45.1387 30.0286ZM40.8148 28.8977C41.6722 28.8977 42.3818 28.6094 42.9435 28.0329C43.52 27.4416 43.8083 26.7099 43.8083 25.8377C43.8083 24.9656 43.5274 24.2412 42.9657 23.6647C42.4039 23.0734 41.6944 22.7778 40.837 22.7778C39.9796 22.7778 39.2627 23.0734 38.6862 23.6647C38.1096 24.2412 37.8214 24.9656 37.8214 25.8377C37.8214 26.7099 38.1096 27.4416 38.6862 28.0329C39.2627 28.6094 39.9722 28.8977 40.8148 28.8977ZM55.3691 20.0282C56.6699 20.0282 57.7269 20.4421 58.5399 21.27C59.3529 22.083 59.7594 23.1473 59.7594 24.463V31.4033H56.5886V25.1282C56.5886 24.4334 56.389 23.8717 55.9899 23.443C55.6056 23.0143 55.103 22.7999 54.4821 22.7999C53.8021 22.7999 53.233 23.066 52.7747 23.5982C52.3313 24.1156 52.1095 24.7734 52.1095 25.5717V31.4033H48.9165V20.25H51.9543V21.5804C52.8265 20.5456 53.9647 20.0282 55.3691 20.0282ZM68.7945 20.0282C70.0954 20.0282 71.1523 20.4421 71.9653 21.27C72.7784 22.083 73.1849 23.1473 73.1849 24.463V31.4033H70.0141V25.1282C70.0141 24.4334 69.8145 23.8717 69.4154 23.443C69.031 23.0143 68.5284 22.7999 67.9076 22.7999C67.2276 22.7999 66.6584 23.066 66.2002 23.5982C65.7567 24.1156 65.535 24.7734 65.535 25.5717V31.4033H62.342V20.25H65.3798V21.5804C66.2519 20.5456 67.3902 20.0282 68.7945 20.0282ZM86.9429 25.5273C86.9429 25.956 86.9208 26.3256 86.8764 26.636H78.1178C78.2361 27.4195 78.5613 28.0477 79.0935 28.5207C79.6404 28.979 80.3204 29.2081 81.1335 29.2081C82.4491 29.2081 83.3656 28.7055 83.883 27.7003L86.3886 28.7647C86.019 29.6368 85.3612 30.339 84.4152 30.8712C83.4839 31.3885 82.3974 31.6472 81.1556 31.6472C79.3522 31.6472 77.8961 31.1077 76.7874 30.0286C75.6935 28.9494 75.1466 27.5599 75.1466 25.8599C75.1466 24.1304 75.7009 22.726 76.8096 21.6469C77.9331 20.553 79.3817 20.0061 81.1556 20.0061C82.8556 20.0061 84.2452 20.5234 85.3243 21.5582C86.4034 22.5782 86.9429 23.9012 86.9429 25.5273ZM81.1113 22.3786C80.3869 22.3786 79.7513 22.6004 79.2043 23.0439C78.6574 23.4873 78.3026 24.0712 78.14 24.7956H83.9495C83.8312 24.086 83.5134 23.5095 82.996 23.066C82.4787 22.6078 81.8504 22.3786 81.1113 22.3786ZM94.3424 31.6472C92.5685 31.6472 91.1272 31.1151 90.0185 30.0507C88.9098 28.9716 88.3555 27.5747 88.3555 25.8599C88.3555 24.1304 88.9172 22.726 90.0407 21.6469C91.1789 20.553 92.6498 20.0061 94.4532 20.0061C95.8428 20.0061 97.0475 20.3535 98.0675 21.0482C99.0875 21.743 99.7527 22.7039 100.063 23.9308L97.1362 24.7291C96.9884 24.1525 96.6558 23.6869 96.1384 23.3321C95.6358 22.9626 95.0667 22.7778 94.4311 22.7778C93.5589 22.7778 92.8419 23.066 92.2802 23.6425C91.7333 24.2043 91.4598 24.936 91.4598 25.8377C91.4598 26.7247 91.7333 27.4564 92.2802 28.0329C92.8419 28.6094 93.5663 28.8977 94.4532 28.8977C95.0741 28.8977 95.6358 28.7129 96.1384 28.3434C96.6558 27.9738 97.0106 27.5081 97.2028 26.9464L99.9745 28.0994C99.6049 29.149 98.9175 30.0064 97.9123 30.6716C96.9219 31.322 95.7319 31.6472 94.3424 31.6472ZM107.537 28.8755C108.187 28.8755 108.808 28.7573 109.399 28.5207V31.1372C108.527 31.4772 107.618 31.6472 106.672 31.6472C105.371 31.6472 104.403 31.322 103.767 30.6716C103.132 30.0064 102.814 29.0899 102.814 27.9221V22.933H100.996V20.25H102.814V16.8131H105.963V20.25H109.023V22.933H105.963V27.2125C105.963 27.789 106.073 28.2103 106.295 28.4764C106.532 28.7425 106.946 28.8755 107.537 28.8755Z" fill="#00323C"/>
</svg>
