<svg xmlns="http://www.w3.org/2000/svg" width="15" height="13" viewBox="0 0 15 13" fill="none">
<path d="M0.289062 6.74414C0.915729 3.33081 3.90706 0.744141 7.50173 0.744141C11.0964 0.744141 14.0871 3.33081 14.7144 6.74414C14.0877 10.1575 11.0964 12.7441 7.50173 12.7441C3.90706 12.7441 0.916396 10.1575 0.289062 6.74414ZM7.50173 10.0775C8.38578 10.0775 9.23363 9.72628 9.85875 9.10116C10.4839 8.47604 10.8351 7.6282 10.8351 6.74414C10.8351 5.86009 10.4839 5.01224 9.85875 4.38712C9.23363 3.762 8.38578 3.41081 7.50173 3.41081C6.61767 3.41081 5.76983 3.762 5.14471 4.38712C4.51959 5.01224 4.1684 5.86009 4.1684 6.74414C4.1684 7.6282 4.51959 8.47604 5.14471 9.10116C5.76983 9.72628 6.61767 10.0775 7.50173 10.0775ZM7.50173 8.74414C6.9713 8.74414 6.46259 8.53343 6.08752 8.15835C5.71244 7.78328 5.50173 7.27457 5.50173 6.74414C5.50173 6.21371 5.71244 5.705 6.08752 5.32993C6.46259 4.95485 6.9713 4.74414 7.50173 4.74414C8.03216 4.74414 8.54087 4.95485 8.91594 5.32993C9.29102 5.705 9.50173 6.21371 9.50173 6.74414C9.50173 7.27457 9.29102 7.78328 8.91594 8.15835C8.54087 8.53343 8.03216 8.74414 7.50173 8.74414Z" fill="#00323C"/>
</svg>