<svg width="40" height="41" viewBox="0 0 40 41" fill="none" xmlns="http://www.w3.org/2000/svg">
<path d="M0 8.05859C0 3.64032 3.58172 0.0585938 8 0.0585938H32C36.4183 0.0585938 40 3.64032 40 8.05859V32.0586C40 36.4769 36.4183 40.0586 32 40.0586H8C3.58172 40.0586 0 36.4769 0 32.0586V8.05859Z" fill="#C3DCB9"/>
<path d="M21.3346 21.0583H23.0013L23.668 18.3916H21.3346V17.0583C21.3346 16.3716 21.3346 15.7249 22.668 15.7249H23.668V13.4849C23.4506 13.4563 22.63 13.3916 21.7633 13.3916C19.9533 13.3916 18.668 14.4963 18.668 16.5249V18.3916H16.668V21.0583H18.668V26.7249H21.3346V21.0583Z" fill="#00323C"/>
</svg>