<svg width="115" height="52" viewBox="0 0 115 52" fill="none" xmlns="http://www.w3.org/2000/svg">
<path d="M0.707031 25.7202C0.707031 11.7246 12.0527 0.378906 26.0483 0.378906H89.3657C103.361 0.378906 114.707 11.7246 114.707 25.7202C114.707 39.7158 103.361 51.0615 89.3657 51.0615H26.0483C12.0527 51.0615 0.707031 39.7158 0.707031 25.7202Z" fill="#FF55D2"/>
<path d="M20.2814 31.7207V16.8865H23.5852V31.7207H20.2814ZM32.9434 20.3456C34.2442 20.3456 35.3012 20.7595 36.1142 21.5873C36.9272 22.4004 37.3338 23.4647 37.3338 24.7804V31.7207H34.1629V25.4456C34.1629 24.7508 33.9634 24.1891 33.5642 23.7604C33.1799 23.3317 32.6773 23.1173 32.0564 23.1173C31.3764 23.1173 30.8073 23.3834 30.3491 23.9156C29.9056 24.433 29.6839 25.0908 29.6839 25.889V31.7207H26.4908V20.5674H29.5286V21.8978C30.4008 20.863 31.539 20.3456 32.9434 20.3456ZM44.5589 28.1951H44.6254L47.2863 20.5674H50.7897L46.2885 31.7207H42.8515L38.3946 20.5674H41.8759L44.5589 28.1951ZM61.5602 30.3459C60.422 31.4251 58.9807 31.9646 57.2363 31.9646C55.492 31.9646 54.0433 31.4177 52.8903 30.3238C51.7521 29.2299 51.1829 27.8477 51.1829 26.1773C51.1829 24.4921 51.7447 23.0952 52.8681 21.9865C54.0064 20.8778 55.4625 20.3234 57.2363 20.3234C58.9955 20.3234 60.4367 20.8852 61.5602 22.0086C62.6985 23.1173 63.2676 24.5069 63.2676 26.1773C63.2676 27.8625 62.6985 29.252 61.5602 30.3459ZM57.2363 29.2151C58.0937 29.2151 58.8033 28.9268 59.365 28.3503C59.9415 27.759 60.2298 27.0273 60.2298 26.1551C60.2298 25.283 59.9489 24.5586 59.3872 23.9821C58.8255 23.3908 58.1159 23.0952 57.2585 23.0952C56.4011 23.0952 55.6842 23.3908 55.1077 23.9821C54.5312 24.5586 54.2429 25.283 54.2429 26.1551C54.2429 27.0273 54.5312 27.759 55.1077 28.3503C55.6842 28.9268 56.3937 29.2151 57.2363 29.2151ZM68.3315 18.7491C67.9619 19.1187 67.5037 19.3035 66.9567 19.3035C66.4098 19.3035 65.9441 19.1187 65.5598 18.7491C65.1902 18.3648 65.0054 17.8991 65.0054 17.3522C65.0054 16.82 65.1902 16.3691 65.5598 15.9996C65.9441 15.63 66.4098 15.4452 66.9567 15.4452C67.5037 15.4452 67.9619 15.63 68.3315 15.9996C68.701 16.3691 68.8858 16.82 68.8858 17.3522C68.8858 17.8991 68.701 18.3648 68.3315 18.7491ZM68.5532 31.7207H65.338V20.5674H68.5532V31.7207ZM76.6156 31.9646C74.8417 31.9646 73.4004 31.4324 72.2917 30.3681C71.183 29.289 70.6287 27.8921 70.6287 26.1773C70.6287 24.4477 71.1904 23.0434 72.3139 21.9643C73.4522 20.8704 74.923 20.3234 76.7265 20.3234C78.116 20.3234 79.3208 20.6708 80.3408 21.3656C81.3608 22.0604 82.026 23.0212 82.3364 24.2482L79.4095 25.0464C79.2616 24.4699 78.929 24.0043 78.4117 23.6495C77.9091 23.2799 77.3399 23.0952 76.7043 23.0952C75.8321 23.0952 75.1152 23.3834 74.5534 23.9599C74.0065 24.5217 73.733 25.2534 73.733 26.1551C73.733 27.0421 74.0065 27.7738 74.5534 28.3503C75.1152 28.9268 75.8395 29.2151 76.7265 29.2151C77.3473 29.2151 77.9091 29.0303 78.4117 28.6607C78.929 28.2912 79.2838 27.8255 79.476 27.2638L82.2477 28.4168C81.8781 29.4664 81.1908 30.3238 80.1855 30.989C79.1951 31.6394 78.0051 31.9646 76.6156 31.9646ZM95.3092 25.8447C95.3092 26.2734 95.287 26.6429 95.2427 26.9534H86.4841C86.6023 27.7368 86.9276 28.3651 87.4597 28.8381C88.0067 29.2964 88.6867 29.5255 89.4997 29.5255C90.8153 29.5255 91.7318 29.0229 92.2492 28.0177L94.7549 29.082C94.3853 29.9542 93.7275 30.6564 92.7814 31.1885C91.8501 31.7059 90.7636 31.9646 89.5219 31.9646C87.7184 31.9646 86.2623 31.4251 85.1537 30.3459C84.0598 29.2668 83.5128 27.8773 83.5128 26.1773C83.5128 24.4477 84.0672 23.0434 85.1758 21.9643C86.2993 20.8704 87.748 20.3234 89.5219 20.3234C91.2219 20.3234 92.6114 20.8408 93.6905 21.8756C94.7696 22.8956 95.3092 24.2186 95.3092 25.8447ZM89.4775 22.696C88.7532 22.696 88.1175 22.9178 87.5706 23.3612C87.0236 23.8047 86.6689 24.3886 86.5063 25.113H92.3158C92.1975 24.4034 91.8797 23.8269 91.3623 23.3834C90.8449 22.9252 90.2166 22.696 89.4775 22.696Z" fill="#00323C"/>
</svg>
