<svg width="16" height="17" viewBox="0 0 16 17" fill="none" xmlns="http://www.w3.org/2000/svg">
<path d="M9.73464 6.07774H14.0013C14.3549 6.07774 14.6941 6.21821 14.9441 6.46826C15.1942 6.71831 15.3346 7.05745 15.3346 7.41107V8.81374C15.3348 8.98798 15.3008 9.16056 15.2346 9.32174L13.1713 14.3317C13.121 14.4539 13.0355 14.5583 12.9257 14.6318C12.8159 14.7053 12.6867 14.7445 12.5546 14.7444H1.33464C1.15782 14.7444 0.988255 14.6742 0.863231 14.5491C0.738207 14.4241 0.667969 14.2545 0.667969 14.0777V7.41107C0.667969 7.23426 0.738207 7.06469 0.863231 6.93966C0.988255 6.81464 1.15782 6.7444 1.33464 6.7444H3.65597C3.7627 6.74443 3.86788 6.71883 3.96266 6.66976C4.05744 6.62069 4.13905 6.54957 4.20064 6.4624L7.83597 1.31107C7.88192 1.24594 7.9497 1.19944 8.02699 1.18C8.10429 1.16055 8.186 1.16944 8.2573 1.20507L9.46664 1.80974C9.80697 1.97984 10.0789 2.26128 10.2371 2.60728C10.3954 2.95328 10.4305 3.34302 10.3366 3.71174L9.73464 6.07774ZM4.66797 7.80307V13.4111H12.108L14.0013 8.81374V7.41107H9.73464C9.53157 7.41104 9.33119 7.36463 9.14879 7.27537C8.96639 7.18612 8.80678 7.05638 8.68215 6.89606C8.55752 6.73574 8.47116 6.54906 8.42965 6.35028C8.38814 6.1515 8.39258 5.94587 8.44264 5.74907L9.04464 3.38374C9.06348 3.30995 9.05649 3.23195 9.02483 3.16269C8.99317 3.09343 8.93876 3.0371 8.87064 3.00307L8.42997 2.78307L5.28997 7.23107C5.1233 7.46707 4.90997 7.6604 4.66797 7.80307ZM3.33464 8.07774H2.0013V13.4111H3.33464V8.07774Z" fill="#00323C"/>
</svg>
