<svg xmlns="http://www.w3.org/2000/svg" width="16" height="17" viewBox="0 0 16 17" fill="none">
<path d="M12.2233 12.2846H10.4467V9.49993C10.4467 8.83593 10.4333 7.98126 9.52 7.98126C8.594 7.98126 8.45267 8.70393 8.45267 9.45126V12.2846H6.67533V6.55859H8.382V7.33859H8.40533C8.644 6.88926 9.224 6.41393 10.0907 6.41393C11.8907 6.41393 12.224 7.59926 12.224 9.14126V12.2846H12.2233ZM4.66867 5.77526C4.53304 5.77544 4.39871 5.74884 4.27338 5.697C4.14804 5.64516 4.03418 5.56909 3.9383 5.47315C3.84243 5.37722 3.76644 5.2633 3.71467 5.13794C3.66291 5.01257 3.6364 4.87822 3.63667 4.74259C3.6368 4.53848 3.69745 4.339 3.81096 4.16936C3.92447 3.99972 4.08573 3.86755 4.27435 3.78956C4.46298 3.71157 4.67049 3.69127 4.87065 3.73122C5.07082 3.77117 5.25464 3.86958 5.39887 4.014C5.54311 4.15842 5.64128 4.34237 5.68097 4.54258C5.72066 4.7428 5.70009 4.95028 5.62185 5.13881C5.54362 5.32733 5.41125 5.48842 5.24146 5.60171C5.07168 5.715 4.87211 5.77539 4.668 5.77526H4.66867ZM5.55933 12.2846H3.77733V6.55859H5.56V12.2846H5.55933ZM13.1133 2.05859H2.886C2.39533 2.05859 2 2.44526 2 2.92326V13.1939C2 13.6719 2.396 14.0586 2.88533 14.0586H13.1107C13.6 14.0586 14 13.6719 14 13.1939V2.92326C14 2.44526 13.6 2.05859 13.1107 2.05859H13.1127H13.1133Z" fill="#00323C"/>
</svg>