
<svg width="40" height="41" viewBox="0 0 40 41" fill="none" xmlns="http://www.w3.org/2000/svg">
<path d="M0 8.05859C0 3.64032 3.58172 0.0585938 8 0.0585938H32C36.4183 0.0585938 40 3.64032 40 8.05859V32.0586C40 36.4769 36.4183 40.0586 32 40.0586H8C3.58172 40.0586 0 36.4769 0 32.0586V8.05859Z" fill="#C3DCB9"/>
<path d="M24.2233 24.2846H22.4467V21.4999C22.4467 20.8359 22.4333 19.9813 21.52 19.9813C20.594 19.9813 20.4527 20.7039 20.4527 21.4513V24.2846H18.6753V18.5586H20.382V19.3386H20.4053C20.644 18.8893 21.224 18.4139 22.0907 18.4139C23.8907 18.4139 24.224 19.5993 24.224 21.1413V24.2846H24.2233ZM16.6687 17.7753C16.533 17.7754 16.3987 17.7488 16.2734 17.697C16.148 17.6452 16.0342 17.5691 15.9383 17.4732C15.8424 17.3772 15.7664 17.2633 15.7147 17.1379C15.6629 17.0126 15.6364 16.8782 15.6367 16.7426C15.6368 16.5385 15.6975 16.339 15.811 16.1694C15.9245 15.9997 16.0857 15.8675 16.2744 15.7896C16.463 15.7116 16.6705 15.6913 16.8707 15.7312C17.0708 15.7712 17.2546 15.8696 17.3989 16.014C17.5431 16.1584 17.6413 16.3424 17.681 16.5426C17.7207 16.7428 17.7001 16.9503 17.6219 17.1388C17.5436 17.3273 17.4112 17.4884 17.2415 17.6017C17.0717 17.715 16.8721 17.7754 16.668 17.7753H16.6687ZM17.5593 24.2846H15.7773V18.5586H17.56V24.2846H17.5593ZM25.1133 14.0586H14.886C14.3953 14.0586 14 14.4453 14 14.9233V25.1939C14 25.6719 14.396 26.0586 14.8853 26.0586H25.1107C25.6 26.0586 26 25.6719 26 25.1939V14.9233C26 14.4453 25.6 14.0586 25.1107 14.0586H25.1127H25.1133Z" fill="#00323C"/>
</svg>
