<svg xmlns="http://www.w3.org/2000/svg" width="130" height="41" viewBox="0 0 130 41" fill="none">
    <g clip-path="url(#clip0_853_9667)">
        <path d="M22.1002 28.3428L25.6242 31.3024C23.6085 34.4451 20.0845 36.5265 16.0758 36.5265C12.067 36.5265 8.54448 34.4451 6.52734 31.3024L10.0513 28.3428C11.1896 30.5093 13.4604 31.9863 16.0758 31.9863C18.6911 31.9863 20.962 30.5093 22.1002 28.3428Z" fill="#00323C"/>
        <path d="M16.075 11.9319C18.058 11.9319 19.6655 10.3229 19.6655 8.33802C19.6655 6.35318 18.058 4.74414 16.075 4.74414C14.0919 4.74414 12.4844 6.35318 12.4844 8.33802C12.4844 10.3229 14.0919 11.9319 16.075 11.9319Z" fill="#00323C"/>
        <path d="M16.0745 13.8242C9.81193 13.8242 4.73438 18.9064 4.73438 25.1748C4.73438 25.819 4.78824 26.4517 4.89172 27.0661H27.2573C27.3608 26.4503 27.4147 25.819 27.4147 25.1748C27.4147 18.9064 22.3371 13.8242 16.0745 13.8242ZM9.53693 23.2835C10.3563 20.443 12.973 18.3659 16.0745 18.3659C19.1761 18.3659 21.7928 20.443 22.6121 23.2835H9.53552H9.53693Z" fill="#00323C"/>
        <path d="M44.3663 25.7941V24.9825C44.3663 23.3608 43.8474 22.0158 42.7942 20.9616C41.758 19.9074 40.461 19.3711 38.889 19.3711C37.3169 19.3711 35.9731 19.9188 34.849 20.9999C34.8292 21.0198 34.8093 21.0382 34.7895 21.0581C33.6725 22.1931 33.1055 23.5566 33.1055 25.1613C33.1055 26.766 33.6725 28.1295 34.7895 29.2646C35.9249 30.3996 37.2857 30.9686 38.889 30.9686C40.9032 30.9686 42.6043 29.9768 43.6249 28.3693L41.9678 26.9774C41.3852 28.1948 40.2512 28.8914 38.889 28.8914C37.8683 28.8914 37.0093 28.5353 36.3133 27.8046C35.7747 27.2399 35.4486 26.5716 35.3366 25.7941H44.3663ZM35.4713 23.9482C35.6357 23.4218 35.9164 22.9494 36.3133 22.5337C36.3686 22.4769 36.4253 22.423 36.482 22.3705C37.1468 21.7661 37.9491 21.4639 38.889 21.4639C40.4454 21.4639 41.758 22.3889 42.2272 23.961L38.3673 23.9539L35.4713 23.9482Z" fill="#00323C"/>
        <path d="M48.4911 19.4844H51.8776L55.7503 30.8378H53.4822L52.6884 28.4698H47.6335L46.8227 30.8378H44.5547L48.4926 19.4844H48.4911ZM52.0392 26.4905L50.1922 20.8791L48.2799 26.4905H52.0392Z" fill="#00323C"/>
        <path d="M69.9496 27.2851L66.0117 19.4844H68.345L71.0184 24.8206L73.7089 19.4844H76.0265L72.1382 27.2212V30.8378H69.951V27.2865L69.9496 27.2851Z" fill="#00323C"/>
        <path d="M89.9934 21.5119H86.4453V19.4844H95.5997V21.5119H92.165V30.8378H89.9934V21.5119Z" fill="#00323C"/>
        <path d="M99.0238 19.4844H102.41L106.283 30.8378H104.015L103.221 28.4698H98.1648L97.354 30.8378H95.0859L99.0238 19.4844ZM102.573 26.4905L100.726 20.8791L98.814 26.4905H102.573Z" fill="#00323C"/>
        <path d="M107.59 19.4858H115.87V21.4963H109.777V24.1722H115.222V26.1344H109.777V30.8378H107.59V19.4844V19.4858Z" fill="#00323C"/>
        <path d="M117.344 19.4858H125.623V21.4963H119.531V24.1722H124.976V26.1344H119.531V30.8378H117.344V19.4844V19.4858Z" fill="#00323C"/>
        <path d="M85.9306 27.3992C85.888 31.6769 79.7927 31.5365 76.935 30.0141V27.7241C78.4234 28.8194 81.1152 29.5955 82.9254 28.6846C83.8766 28.1086 83.7703 26.7834 82.7213 26.4273C81.0727 25.8526 78.7126 26.0201 77.3716 24.7829C76.8939 24.343 76.6189 23.7315 76.5367 23.0874C76.0221 19.0806 81.6964 18.6876 84.6959 19.9617V22.0346L84.6846 22.0559C83.2061 21.2968 80.9281 20.7647 79.4397 21.5323C78.8231 21.8828 78.6559 22.7071 79.0357 23.2576C79.2824 23.6308 79.9614 23.8209 80.3753 23.9287C82.8914 24.4381 85.9107 24.5431 85.932 27.3992H85.9306Z" fill="#00323C"/>
        <path d="M66.0595 27.3992C66.017 31.6769 59.9216 31.5365 57.0639 30.0141V27.7241C58.5523 28.8194 61.2442 29.5955 63.0543 28.6846C64.0055 28.1086 63.8992 26.7834 62.8502 26.4273C61.2016 25.8526 58.8415 26.0201 57.5005 24.7829C57.0228 24.343 56.7478 23.7315 56.6656 23.0874C56.151 19.0806 61.8253 18.6876 64.8248 19.9617V22.0346L64.8135 22.0559C63.335 21.2968 61.057 20.7647 59.5686 21.5323C58.952 21.8828 58.7848 22.7071 59.1647 23.2576C59.4113 23.6308 60.0903 23.8209 60.5042 23.9287C63.0203 24.4381 66.0396 24.5431 66.0609 27.3992H66.0595Z" fill="#00323C"/>
    </g>
    <defs>
        <clipPath id="clip0_853_9667">
            <rect width="120.889" height="32" fill="white" transform="translate(4.73438 4.74414)"/>
        </clipPath>
    </defs>
</svg>
