<svg width="113" height="52" viewBox="0 0 113 52" fill="none" xmlns="http://www.w3.org/2000/svg">
<path d="M0.734375 26.0376C0.734375 12.042 12.0801 0.696289 26.0757 0.696289H87.3931C101.389 0.696289 112.734 12.042 112.734 26.0376V26.0376C112.734 40.0332 101.389 51.3789 87.3931 51.3789H26.0757C12.0801 51.3789 0.734375 40.0332 0.734375 26.0376V26.0376Z" fill="#00E1A5"/>
<path d="M27.2712 17.2039C28.8973 17.2039 30.2203 17.7065 31.2403 18.7117C32.2603 19.7021 32.7703 20.9882 32.7703 22.5699C32.7703 24.1812 32.2455 25.4821 31.196 26.4725C30.1612 27.4629 28.779 27.9581 27.0495 27.9581H23.5682V32.0381H20.3087V17.2039H27.2712ZM23.5682 25.1643H26.7612C27.5595 25.1643 28.2099 24.9277 28.7125 24.4547C29.2151 23.9669 29.4664 23.346 29.4664 22.5921C29.4664 21.8382 29.2225 21.2247 28.7347 20.7517C28.2469 20.2639 27.6186 20.02 26.8499 20.02H23.5682V25.1643ZM42.9989 22.3039V20.8847H45.948V32.0381H42.9989V30.6411C42.0824 31.735 40.8703 32.282 39.3625 32.282C37.7955 32.282 36.5021 31.735 35.4821 30.6411C34.4769 29.5472 33.9743 28.1503 33.9743 26.4503C33.9743 24.7651 34.4842 23.3756 35.5042 22.2817C36.5242 21.1878 37.8251 20.6408 39.4068 20.6408C40.8407 20.6408 42.0381 21.1952 42.9989 22.3039ZM37.9212 28.6677C38.4829 29.2442 39.1851 29.5325 40.0277 29.5325C40.8703 29.5325 41.5724 29.2368 42.1342 28.6455C42.6959 28.0394 42.9768 27.3003 42.9768 26.4282C42.9768 25.5856 42.6959 24.876 42.1342 24.2995C41.5724 23.7082 40.8777 23.4125 40.0498 23.4125C39.1925 23.4125 38.4829 23.7082 37.9212 24.2995C37.3594 24.876 37.0786 25.6003 37.0786 26.4725C37.0786 27.3447 37.3594 28.0764 37.9212 28.6677ZM53.948 29.3329L56.875 20.8847H60.1123L56.1211 31.7055C55.8993 32.3263 55.6924 32.8437 55.5002 33.2576C55.308 33.6863 55.0419 34.1446 54.7019 34.6324C54.3767 35.135 54.0219 35.5341 53.6376 35.8298C53.268 36.1402 52.795 36.3915 52.2185 36.5837C51.6568 36.7906 51.0285 36.8941 50.3337 36.8941C49.5207 36.8941 48.6559 36.7241 47.7394 36.3841V33.5902C48.5377 33.9598 49.2916 34.1446 50.0011 34.1446C50.622 34.1446 51.1172 34.0411 51.4868 33.8342C51.8711 33.6272 52.1963 33.2798 52.4624 32.792L47.3625 20.8847H50.6442L53.948 29.3329ZM67.7825 20.6408C68.2555 20.6408 68.7138 20.7221 69.1573 20.8847L69.1351 23.9669C68.6177 23.7747 68.0929 23.6786 67.5608 23.6786C66.6886 23.6786 66.0086 23.9447 65.5208 24.4769C65.0477 24.9943 64.8112 25.7038 64.8112 26.6055V32.0381H61.6626V20.8847H64.7003V22.2152C65.3803 21.1656 66.4077 20.6408 67.7825 20.6408ZM80.4265 30.6633C79.2882 31.7424 77.847 32.282 76.1026 32.282C74.3583 32.282 72.9096 31.735 71.7566 30.6411C70.6183 29.5472 70.0492 28.1651 70.0492 26.4947C70.0492 24.8095 70.611 23.4125 71.7344 22.3039C72.8727 21.1952 74.3287 20.6408 76.1026 20.6408C77.8617 20.6408 79.303 21.2026 80.4265 22.326C81.5647 23.4347 82.1339 24.8243 82.1339 26.4947C82.1339 28.1799 81.5647 29.5694 80.4265 30.6633ZM76.1026 29.5325C76.96 29.5325 77.6696 29.2442 78.2313 28.6677C78.8078 28.0764 79.0961 27.3447 79.0961 26.4725C79.0961 25.6003 78.8152 24.876 78.2535 24.2995C77.6917 23.7082 76.9822 23.4125 76.1248 23.4125C75.2674 23.4125 74.5505 23.7082 73.974 24.2995C73.3974 24.876 73.1092 25.6003 73.1092 26.4725C73.1092 27.3447 73.3974 28.0764 73.974 28.6677C74.5505 29.2442 75.26 29.5325 76.1026 29.5325ZM87.4195 16.4944V32.0381H84.2043V16.4944H87.4195ZM93.331 16.4944V32.0381H90.1159V16.4944H93.331Z" fill="#00323C"/>
</svg>
