<svg width="65" height="51" viewBox="0 0 65 51" fill="none" xmlns="http://www.w3.org/2000/svg">
<path d="M0.993088 25.4028C0.993088 11.8446 11.9842 0.853439 25.5425 0.853439H38.713C52.2713 0.853439 63.2624 11.8446 63.2624 25.4028C63.2624 38.9611 52.2713 49.9522 38.713 49.9522H25.5425C11.9842 49.9522 0.993088 38.9611 0.993088 25.4028Z" stroke="#00A9EB" stroke-width="1.58383"/>
<g clip-path="url(#clip0_731_22356)">
<path d="M39.1262 30.7616L44.0968 35.731L42.4547 37.3732L37.4852 32.4026C35.6362 33.8849 33.3362 34.6911 30.9664 34.6877C25.2008 34.6877 20.5215 30.0084 20.5215 24.2428C20.5215 18.4772 25.2008 13.7979 30.9664 13.7979C36.732 13.7979 41.4113 18.4772 41.4113 24.2428C41.4147 26.6126 40.6085 28.9125 39.1262 30.7616ZM36.7982 29.9004C38.271 28.3858 39.0936 26.3555 39.0902 24.2428C39.0902 19.7538 35.4542 16.1189 30.9664 16.1189C26.4774 16.1189 22.8426 19.7538 22.8426 24.2428C22.8426 28.7306 26.4774 32.3666 30.9664 32.3666C33.0791 32.3699 35.1094 31.5474 36.6241 30.0745L36.7982 29.9004Z" fill="#00A9EB"/>
</g>
<defs>
<clipPath id="clip0_731_22356">
<rect width="27.8531" height="27.8531" fill="white" transform="translate(18.2012 11.4766)"/>
</clipPath>
</defs>
</svg>
