<svg width="65" height="52" viewBox="0 0 65 52" fill="none" xmlns="http://www.w3.org/2000/svg">
<path d="M0.853516 25.7202C0.853516 11.7246 12.1992 0.378906 26.1948 0.378906H39.3653C53.361 0.378906 64.7067 11.7246 64.7067 25.7202C64.7067 39.7158 53.361 51.0615 39.3653 51.0615H26.1948C12.1992 51.0615 0.853516 39.7158 0.853516 25.7202Z" fill="#D2E600"/>
<g clip-path="url(#clip0_731_22346)">
<path d="M32.7793 37.3262C26.3696 37.3262 21.1738 32.1304 21.1738 25.7207C21.1738 19.311 26.3696 14.1152 32.7793 14.1152C39.189 14.1152 44.3848 19.311 44.3848 25.7207C44.3848 32.1304 39.189 37.3262 32.7793 37.3262ZM32.7793 35.0051C35.2417 35.0051 37.6032 34.0269 39.3444 32.2858C41.0855 30.5446 42.0637 28.1831 42.0637 25.7207C42.0637 23.2583 41.0855 20.8968 39.3444 19.1557C37.6032 17.4145 35.2417 16.4363 32.7793 16.4363C30.3169 16.4363 27.9554 17.4145 26.2143 19.1557C24.4731 20.8968 23.4949 23.2583 23.4949 25.7207C23.4949 28.1831 24.4731 30.5446 26.2143 32.2858C27.9554 34.0269 30.3169 35.0051 32.7793 35.0051ZM26.9766 26.8813H29.2977C29.2977 27.8046 29.6645 28.6902 30.3174 29.3432C30.9703 29.9961 31.8559 30.3629 32.7793 30.3629C33.7027 30.3629 34.5883 29.9961 35.2412 29.3432C35.8941 28.6902 36.2609 27.8046 36.2609 26.8813H38.582C38.582 28.4202 37.9707 29.8962 36.8825 30.9844C35.7942 32.0726 34.3183 32.684 32.7793 32.684C31.2403 32.684 29.7644 32.0726 28.6761 30.9844C27.5879 29.8962 26.9766 28.4202 26.9766 26.8813ZM28.1371 24.5602C27.6754 24.5602 27.2326 24.3768 26.9062 24.0503C26.5797 23.7238 26.3963 23.281 26.3963 22.8193C26.3963 22.3576 26.5797 21.9149 26.9062 21.5884C27.2326 21.2619 27.6754 21.0785 28.1371 21.0785C28.5988 21.0785 29.0416 21.2619 29.3681 21.5884C29.6945 21.9149 29.8779 22.3576 29.8779 22.8193C29.8779 23.281 29.6945 23.7238 29.3681 24.0503C29.0416 24.3768 28.5988 24.5602 28.1371 24.5602ZM37.4215 24.5602C36.9598 24.5602 36.517 24.3768 36.1905 24.0503C35.8641 23.7238 35.6807 23.281 35.6807 22.8193C35.6807 22.3576 35.8641 21.9149 36.1905 21.5884C36.517 21.2619 36.9598 21.0785 37.4215 21.0785C37.8832 21.0785 38.326 21.2619 38.6524 21.5884C38.9789 21.9149 39.1623 22.3576 39.1623 22.8193C39.1623 23.281 38.9789 23.7238 38.6524 24.0503C38.326 24.3768 37.8832 24.5602 37.4215 24.5602Z" fill="#00323C"/>
</g>
<defs>
<clipPath id="clip0_731_22346">
<rect width="27.8531" height="27.8531" fill="white" transform="translate(18.8535 11.7939)"/>
</clipPath>
</defs>
</svg>
