<svg width="64" height="51" viewBox="0 0 64 51" fill="none" xmlns="http://www.w3.org/2000/svg">
<path d="M0.846604 25.4028C0.846604 11.8446 11.8377 0.853439 25.396 0.853439H38.5665C52.1248 0.853439 63.1159 11.8446 63.1159 25.4028C63.1159 38.9611 52.1248 49.9522 38.5665 49.9522H25.396C11.8377 49.9522 0.846604 38.9611 0.846604 25.4028Z" stroke="#00A9EB" stroke-width="1.58383"/>
<g clip-path="url(#clip0_731_22360)">
<path d="M31.9817 32.668L23.7963 37.2498L25.6242 28.049L18.7363 21.6799L28.052 20.5751L31.9817 12.0566L35.9113 20.5751L45.227 21.6799L38.3391 28.049L40.167 37.2498L31.9817 32.668ZM31.9817 30.008L36.9105 32.7666L35.8091 27.2273L39.9558 23.3917L34.3469 22.7267L31.9817 17.5983L29.6165 22.7279L24.0075 23.3917L28.1542 27.2273L27.0528 32.7666L31.9817 30.008Z" fill="#00A9EB"/>
</g>
<defs>
<clipPath id="clip0_731_22360">
<rect width="27.8531" height="27.8531" fill="white" transform="translate(18.0547 11.4766)"/>
</clipPath>
</defs>
</svg>
