<svg width="125" height="51" viewBox="0 0 125 51" fill="none" xmlns="http://www.w3.org/2000/svg">
<path d="M0.791916 25.4028C0.791916 11.8446 11.7831 0.853439 25.3413 0.853439H98.8603C112.419 0.853439 123.41 11.8446 123.41 25.4028C123.41 38.9611 112.419 49.9522 98.8603 49.9522H25.3413C11.783 49.9522 0.791916 38.9611 0.791916 25.4028Z" stroke="#FF55D2" stroke-width="1.58383"/>
<g clip-path="url(#clip0_731_22349)">
<path d="M31.9258 37.0088C25.5161 37.0088 20.3203 31.813 20.3203 25.4033C20.3203 18.9936 25.5161 13.7979 31.9258 13.7979C38.3355 13.7979 43.5313 18.9936 43.5313 25.4033C43.5313 31.813 38.3355 37.0088 31.9258 37.0088ZM31.9258 34.6877C34.3882 34.6877 36.7497 33.7095 38.4908 31.9684C40.232 30.2272 41.2102 27.8657 41.2102 25.4033C41.2102 22.941 40.232 20.5794 38.4908 18.8383C36.7497 17.0971 34.3882 16.1189 31.9258 16.1189C29.4634 16.1189 27.1019 17.0971 25.3607 18.8383C23.6196 20.5794 22.6414 22.941 22.6414 25.4033C22.6414 27.8657 23.6196 30.2272 25.3607 31.9684C27.1019 33.7095 29.4634 34.6877 31.9258 34.6877ZM27.8639 27.7244H34.2469C34.4008 27.7244 34.5484 27.6633 34.6572 27.5545C34.766 27.4456 34.8272 27.298 34.8272 27.1441C34.8272 26.9902 34.766 26.8427 34.6572 26.7338C34.5484 26.625 34.4008 26.5639 34.2469 26.5639H29.6047C28.8352 26.5639 28.0972 26.2582 27.5531 25.7141C27.009 25.17 26.7033 24.432 26.7033 23.6625C26.7033 22.893 27.009 22.155 27.5531 21.6109C28.0972 21.0668 28.8352 20.7611 29.6047 20.7611H30.7652V18.44H33.0863V20.7611H35.9877V23.0822H29.6047C29.4508 23.0822 29.3032 23.1434 29.1944 23.2522C29.0856 23.361 29.0244 23.5086 29.0244 23.6625C29.0244 23.8164 29.0856 23.964 29.1944 24.0728C29.3032 24.1816 29.4508 24.2428 29.6047 24.2428H34.2469C35.0164 24.2428 35.7543 24.5485 36.2985 25.0926C36.8426 25.6367 37.1483 26.3747 37.1483 27.1441C37.1483 27.9136 36.8426 28.6516 36.2985 29.1957C35.7543 29.7398 35.0164 30.0455 34.2469 30.0455H33.0863V32.3666H30.7652V30.0455H27.8639V27.7244Z" fill="#FF55D2"/>
</g>
<g clip-path="url(#clip1_731_22349)">
<path d="M62.0996 37.0088C55.6899 37.0088 50.4941 31.813 50.4941 25.4033C50.4941 18.9936 55.6899 13.7979 62.0996 13.7979C68.5093 13.7979 73.7051 18.9936 73.7051 25.4033C73.7051 31.813 68.5093 37.0088 62.0996 37.0088ZM62.0996 34.6877C64.562 34.6877 66.9235 33.7095 68.6647 31.9684C70.4058 30.2272 71.384 27.8657 71.384 25.4033C71.384 22.941 70.4058 20.5794 68.6647 18.8383C66.9235 17.0971 64.562 16.1189 62.0996 16.1189C59.6372 16.1189 57.2757 17.0971 55.5346 18.8383C53.7934 20.5794 52.8152 22.941 52.8152 25.4033C52.8152 27.8657 53.7934 30.2272 55.5346 31.9684C57.2757 33.7095 59.6372 34.6877 62.0996 34.6877ZM63.2602 26.5639H66.7418V28.885H63.2602V31.2061H60.9391V28.885H57.4574V26.5639H60.9391V25.4033H57.4574V23.0822H60.4586L57.9959 20.6207L59.6393 18.9785L62.0996 21.4412L64.5611 18.9785L66.2033 20.6207L63.7406 23.0822H66.7418V25.4033H63.2602V26.5639Z" fill="#FF55D2"/>
</g>
<g clip-path="url(#clip2_731_22349)">
<path d="M92.2734 37.0088C85.8637 37.0088 80.668 31.813 80.668 25.4033C80.668 18.9936 85.8637 13.7979 92.2734 13.7979C98.6831 13.7979 103.879 18.9936 103.879 25.4033C103.879 31.813 98.6831 37.0088 92.2734 37.0088ZM92.2734 34.6877C94.7358 34.6877 97.0973 33.7095 98.8385 31.9684C100.58 30.2272 101.558 27.8657 101.558 25.4033C101.558 22.941 100.58 20.5794 98.8385 18.8383C97.0973 17.0971 94.7358 16.1189 92.2734 16.1189C89.8111 16.1189 87.4496 17.0971 85.7084 18.8383C83.9672 20.5794 82.9891 22.941 82.9891 25.4033C82.9891 27.8657 83.9672 30.2272 85.7084 31.9684C87.4496 33.7095 89.8111 34.6877 92.2734 34.6877ZM90.0104 24.2428H95.7551V26.5639H90.0104C90.1109 27.0575 90.3382 27.5164 90.67 27.8955C91.0017 28.2746 91.4264 28.5608 91.9024 28.7259C92.3783 28.891 92.889 28.9294 93.3842 28.8372C93.8795 28.7451 94.3422 28.5255 94.7268 28.2002L96.6998 29.5151C96.0218 30.2532 95.1459 30.7805 94.1764 31.0344C93.2069 31.2882 92.1849 31.2577 91.2323 30.9465C90.2797 30.6354 89.4367 30.0568 88.8039 29.2796C88.1712 28.5025 87.7754 27.5598 87.6637 26.5639H86.4707V24.2428H87.6626C87.7738 23.2464 88.1695 22.3031 88.8024 21.5255C89.4353 20.7479 90.2787 20.1689 91.2318 19.8577C92.1848 19.5465 93.2073 19.5162 94.1772 19.7705C95.147 20.0247 96.0231 20.5528 96.7009 21.2915L94.7268 22.6064C94.3422 22.2811 93.8795 22.0616 93.3842 21.9694C92.889 21.8773 92.3783 21.9156 91.9024 22.0807C91.4264 22.2459 91.0017 22.5321 90.67 22.9111C90.3382 23.2902 90.1109 23.7492 90.0104 24.2428Z" fill="#FF55D2"/>
</g>
<defs>
<clipPath id="clip0_731_22349">
<rect width="27.8531" height="27.8531" fill="white" transform="translate(18 11.4766)"/>
</clipPath>
<clipPath id="clip1_731_22349">
<rect width="27.8531" height="27.8531" fill="white" transform="translate(48.1738 11.4766)"/>
</clipPath>
<clipPath id="clip2_731_22349">
<rect width="27.8531" height="27.8531" fill="white" transform="translate(78.3477 11.4766)"/>
</clipPath>
</defs>
</svg>
